<svg xmlns:xlink="http://www.w3.org/1999/xlink" preserveAspectRatio="none" id="wave" style="transform:rotate(0deg); transition: 0.3s" viewBox="0 0 1440 490" version="1.1" xmlns="http://www.w3.org/2000/svg"><defs><linearGradient id="sw-gradient-0" x1="0" x2="0" y1="1" y2="0"><stop stop-color="rgba(40, 41, 64, 1)" offset="0%"/><stop stop-color="rgba(40, 41, 64, 1)" offset="100%"/></linearGradient></defs><path style="transform:translate(0, 0px); opacity:1" fill="url(#sw-gradient-0)" d="M0,294L60,269.5C120,245,240,196,360,220.5C480,245,600,343,720,392C840,441,960,441,1080,424.7C1200,408,1320,376,1440,343C1560,310,1680,278,1800,269.5C1920,261,2040,278,2160,302.2C2280,327,2400,359,2520,351.2C2640,343,2760,294,2880,294C3000,294,3120,343,3240,351.2C3360,359,3480,327,3600,285.8C3720,245,3840,196,3960,155.2C4080,114,4200,82,4320,65.3C4440,49,4560,49,4680,49C4800,49,4920,49,5040,114.3C5160,180,5280,310,5400,351.2C5520,392,5640,343,5760,269.5C5880,196,6000,98,6120,57.2C6240,16,6360,33,6480,57.2C6600,82,6720,114,6840,147C6960,180,7080,212,7200,253.2C7320,294,7440,343,7560,302.2C7680,261,7800,131,7920,122.5C8040,114,8160,229,8280,277.7C8400,327,8520,310,8580,302.2L8640,294L8640,490L8580,490C8520,490,8400,490,8280,490C8160,490,8040,490,7920,490C7800,490,7680,490,7560,490C7440,490,7320,490,7200,490C7080,490,6960,490,6840,490C6720,490,6600,490,6480,490C6360,490,6240,490,6120,490C6000,490,5880,490,5760,490C5640,490,5520,490,5400,490C5280,490,5160,490,5040,490C4920,490,4800,490,4680,490C4560,490,4440,490,4320,490C4200,490,4080,490,3960,490C3840,490,3720,490,3600,490C3480,490,3360,490,3240,490C3120,490,3000,490,2880,490C2760,490,2640,490,2520,490C2400,490,2280,490,2160,490C2040,490,1920,490,1800,490C1680,490,1560,490,1440,490C1320,490,1200,490,1080,490C960,490,840,490,720,490C600,490,480,490,360,490C240,490,120,490,60,490L0,490Z"/></svg>